HIERARCHY
ROOT Hips
{
	OFFSET 0.00000 0.00000 0.00000
	CHANNELS 6 Xposition Yposition Zposition Zrotation Yrotation Xrotation 
	JOINT LHipJoint
	{
		OFFSET 0 0 0
		CHANNELS 3 Zrotation Yrotation Xrotation
		JOINT LeftUpLeg
		{
			OFFSET 1.80322 -1.53100 0.99595
			CHANNELS 3 Zrotation Yrotation Xrotation
			JOINT LeftLeg
			{
				OFFSET 2.25177 -6.18669 0.00000
				CHANNELS 3 Zrotation Yrotation Xrotation
				JOINT LeftFoot
				{
					OFFSET 2.26601 -6.22582 0.00000
					CHANNELS 3 Zrotation Yrotation Xrotation
					JOINT LeftToeBase
					{
						OFFSET 0.23701 -0.65119 2.15848
						CHANNELS 3 Zrotation Yrotation Xrotation
						End Site
						{
							OFFSET 0.00000 -0.00000 1.12949
						}
					}
				}
			}
		}
	}
	JOINT RHipJoint
	{
		OFFSET 0 0 0
		CHANNELS 3 Zrotation Yrotation Xrotation
		JOINT RightUpLeg
		{
			OFFSET -1.93977 -1.53100 0.99595
			CHANNELS 3 Zrotation Yrotation Xrotation
			JOINT RightLeg
			{
				OFFSET -2.28036 -6.26523 0.00000
				CHANNELS 3 Zrotation Yrotation Xrotation
				JOINT RightFoot
				{
					OFFSET -2.25490 -6.19528 0.00000
					CHANNELS 3 Zrotation Yrotation Xrotation
					JOINT RightToeBase
					{
						OFFSET -0.28375 -0.77960 2.23137
						CHANNELS 3 Zrotation Yrotation Xrotation
						End Site
						{
							OFFSET -0.00000 -0.00000 1.17899
						}
					}
				}
			}
		}
	}
	JOINT LowerBack
	{
		OFFSET 0 0 0
		CHANNELS 3 Zrotation Yrotation Xrotation
		JOINT Spine
		{
			OFFSET -0.00088 2.12090 -0.02806
			CHANNELS 3 Zrotation Yrotation Xrotation
			JOINT Spine1
			{
				OFFSET -0.00286 2.09666 0.12974
				CHANNELS 3 Zrotation Yrotation Xrotation
				JOINT Neck
				{
					OFFSET 0 0 0
					CHANNELS 3 Zrotation Yrotation Xrotation
					JOINT Neck1
					{
						OFFSET 0.07328 1.83526 0.07290
						CHANNELS 3 Zrotation Yrotation Xrotation
						JOINT Head
						{
							OFFSET -0.06683 1.74974 -0.49542
							CHANNELS 3 Zrotation Yrotation Xrotation
							End Site
							{
								OFFSET -0.03398 1.85163 -0.17573
							}
						}
					}
				}
				JOINT LeftShoulder
				{
					OFFSET 0 0 0
					CHANNELS 3 Zrotation Yrotation Xrotation
					JOINT LeftArm
					{
						OFFSET 3.02113 1.18018 0.40602
						CHANNELS 3 Zrotation Yrotation Xrotation
						JOINT LeftForeArm
						{
							OFFSET 4.58538 -0.00000 -0.00000
							CHANNELS 3 Zrotation Yrotation Xrotation
							JOINT LeftHand
							{
								OFFSET 2.68935 -0.00000 -0.00000
								CHANNELS 3 Zrotation Yrotation Xrotation
								JOINT LeftFingerBase
								{
									OFFSET 0 0 0
									CHANNELS 3 Zrotation Yrotation Xrotation
									JOINT LeftHandIndex1
									{
										OFFSET 0.58506 -0.00000 -0.00000
										CHANNELS 3 Zrotation Yrotation Xrotation
										End Site
										{
											OFFSET 0.47169 -0.00000 -0.00000
										}
									}
								}
								JOINT LThumb
								{
									OFFSET 0 0 0
									CHANNELS 3 Zrotation Yrotation Xrotation
									End Site
									{
										OFFSET 0.47889 -0.00000 0.47889
									}
								}
							}
						}
					}
				}
				JOINT RightShoulder
				{
					OFFSET 0 0 0
					CHANNELS 3 Zrotation Yrotation Xrotation
					JOINT RightArm
					{
						OFFSET -2.95074 1.18843 0.31430
						CHANNELS 3 Zrotation Yrotation Xrotation
						JOINT RightForeArm
						{
							OFFSET -4.47450 -0.00000 -0.00000
							CHANNELS 3 Zrotation Yrotation Xrotation
							JOINT RightHand
							{
								OFFSET -2.93896 -0.00000 -0.00000
								CHANNELS 3 Zrotation Yrotation Xrotation
								JOINT RightFingerBase
								{
									OFFSET 0 0 0
									CHANNELS 3 Zrotation Yrotation Xrotation
									JOINT RightHandIndex1
									{
										OFFSET -0.40509 -0.00000 -0.00000
										CHANNELS 3 Zrotation Yrotation Xrotation
										End Site
										{
											OFFSET -0.32660 -0.00000 -0.00000
										}
									}
								}
								JOINT RThumb
								{
									OFFSET 0 0 0
									CHANNELS 3 Zrotation Yrotation Xrotation
									End Site
									{
										OFFSET -0.33158 -0.00000 0.33158
									}
								}
							}
						}
					}
				}
			}
		}
	}
}
MOTION
Frames: 5
Frame Time: .0083333
1.6816 15.8719 2.5166 -0.7417 -4.9595 12.5403 0.0000 0.0000 0.0000 -15.5139 -14.5951 -14.3944 1.3661 7.3975 20.8984 0.1841 10.8941 -17.9827 0.0028 -0.3423 -0.9405 0.0000 0.0000 0.0000 13.9331 8.1460 -9.8744 -1.0252 -6.4408 18.0690 0.1005 -21.6956 -29.9148 -0.1388 -2.4008 6.6147 3.8390 -0.0677 -4.8135 0.1675 -0.1470 -7.6276 -1.9727 -0.2826 -5.2355 12.9265 4.2142 -10.8445 -6.8321 5.0463 28.3838 -4.0893 2.8610 11.5530 -0.0000 -0.0000 0.0000 -69.6030 21.2774 33.8271 50.4002 -53.1556 -26.4941 -0.0000 -0.0000 5.1789 13.1093 13.9924 3.2228 -7.1250 0.0000 -0.0000 -13.1224 43.9318 0.3523 -0.0000 -0.0000 0.0000 77.2389 -17.8003 18.7142 -21.8918 32.8546 -6.5271 0.0000 -0.0000 -2.5754 -17.9771 -1.3937 0.4522 7.1250 -0.0000 -0.0000 6.8665 -31.4000 2.2979
1.7116 15.8685 2.5452 -0.7239 -4.1177 12.5222 0.0000 0.0000 0.0000 -15.6082 -14.7847 -14.5344 1.3957 7.4739 21.1272 0.2312 10.2583 -17.8040 0.0032 -0.3669 -1.0081 0.0000 0.0000 0.0000 13.9049 8.4342 -9.1646 -0.9746 -6.2847 17.6127 0.0732 -21.2930 -29.5390 -0.0806 -1.8317 5.0409 3.7824 0.0492 -4.9126 0.0482 0.0045 -7.6656 -2.0651 -0.2065 -5.2102 12.7733 4.0666 -10.7962 -6.5539 4.7997 28.3497 -3.9901 2.7681 11.4891 -0.0000 -0.0000 0.0000 -69.9628 21.4722 32.6243 48.9163 -52.5490 -25.3113 -0.0000 -0.0000 4.2963 13.4149 14.3025 3.3721 -7.1250 0.0000 -0.0000 -12.9355 44.2742 0.2358 -0.0000 -0.0000 0.0000 77.5032 -17.6364 18.7213 -21.7158 32.6544 -6.4318 0.0000 -0.0000 -2.2108 -17.7832 -1.4891 0.4776 7.1250 -0.0000 -0.0000 7.0288 -31.4958 2.3366
1.7399 15.8648 2.5742 -0.6949 -3.2783 12.5018 0.0000 0.0000 0.0000 -15.7112 -14.9597 -14.6588 1.4229 7.5433 21.3352 0.2760 9.6163 -17.6241 0.0036 -0.3868 -1.0628 0.0000 0.0000 0.0000 13.8692 8.6988 -8.4599 -0.9259 -6.1302 17.1627 0.0543 -20.8554 -29.0598 -0.0371 -1.2434 3.4187 3.7118 0.1602 -5.0178 -0.0717 0.1481 -7.6945 -2.1499 -0.1332 -5.1719 12.6213 3.9123 -10.7465 -6.2970 4.5492 28.2976 -3.8995 2.6705 11.4193 -0.0000 0.0000 0.0000 -70.2719 21.6626 31.5627 47.5615 -51.9634 -24.2399 -0.0000 -0.0000 3.4169 13.7936 14.5503 3.5294 -7.1250 0.0000 -0.0000 -12.6651 44.5642 0.1385 -0.0000 0.0000 0.0000 77.7689 -17.4663 18.7605 -21.5618 32.4782 -6.3489 0.0000 -0.0000 -1.8660 -17.5531 -1.7211 0.5443 7.1250 -0.0000 -0.0000 7.2324 -31.7326 2.3638
1.7667 15.8610 2.6036 -0.6568 -2.4515 12.4805 0.0000 0.0000 0.0000 -15.8229 -15.1139 -14.7654 1.4469 7.6040 21.5177 0.3182 8.9729 -17.4449 0.0039 -0.4035 -1.1087 0.0000 0.0000 0.0000 13.8249 8.9368 -7.7752 -0.8808 -5.9830 16.7352 0.0489 -20.4141 -28.4796 -0.0135 -0.7507 2.0632 3.6308 0.2675 -5.1279 -0.1922 0.2867 -7.7182 -2.2290 -0.0616 -5.1252 12.4751 3.7529 -10.6834 -6.0622 4.2981 28.2225 -3.8180 2.5701 11.3398 0.0000 -0.0000 0.0000 -70.5285 21.8602 30.6502 46.3299 -51.4036 -23.2735 -0.0000 -0.0000 2.6207 14.2018 14.7462 3.6857 -7.1250 0.0000 -0.0000 -12.3524 44.8071 0.0598 0.0000 -0.0000 0.0000 78.0342 -17.3031 18.8376 -21.4466 32.3459 -6.2872 0.0000 -0.0000 -1.5283 -17.2726 -2.0950 0.6512 7.1250 -0.0000 -0.0000 7.4907 -32.1146 2.3801
1.7922 15.8572 2.6332 -0.6071 -1.6438 12.4626 0.0000 0.0000 0.0000 -15.9458 -15.2378 -14.8607 1.4671 7.6544 21.6692 0.3574 8.3243 -17.2592 0.0041 -0.4152 -1.1410 0.0000 0.0000 0.0000 13.7690 9.1376 -7.1313 -0.8406 -5.8485 16.3454 0.0789 -20.1269 -27.8462 -0.0039 -0.4057 1.1149 3.5362 0.3720 -5.2395 -0.3145 0.4221 -7.7385 -2.3021 0.0092 -5.0742 12.3352 3.5919 -10.6125 -5.8452 4.0491 28.1271 -3.7435 2.4687 11.2529 0.0000 0.0000 0.0000 -70.7371 22.0751 29.8823 45.2186 -50.8751 -22.4082 -0.0000 -0.0000 1.9980 14.5994 14.8971 3.8310 -7.1250 0.0000 -0.0000 -12.0352 45.0049 -0.0015 0.0000 0.0000 0.0000 78.3011 -17.1470 18.9530 -21.3751 32.2636 -6.2490 0.0000 -0.0000 -1.2218 -16.9339 -2.5804 0.7853 7.1250 -0.0000 -0.0000 7.8100 -32.6088 2.3893
